<?xml version="1.0" encoding="UTF-8" standalone="no"?>
<svg
   xmlns:dc="http://purl.org/dc/elements/1.1/"
   xmlns:cc="http://creativecommons.org/ns#"
   xmlns:rdf="http://www.w3.org/1999/02/22-rdf-syntax-ns#"
   xmlns:svg="http://www.w3.org/2000/svg"
   xmlns="http://www.w3.org/2000/svg"
   xmlns:sodipodi="http://sodipodi.sourceforge.net/DTD/sodipodi-0.dtd"
   xmlns:inkscape="http://www.inkscape.org/namespaces/inkscape"
   width="319.57349mm"
   height="105.60905mm"
   viewBox="0 0 319.57349 105.60905"
   version="1.1"
   id="svg8"
   inkscape:version="1.0.1 (c497b03c, 2020-09-10)"
   sodipodi:docname="Feedics.svg">
  <defs
     id="defs2" />
  <sodipodi:namedview
     id="base"
     pagecolor="#ffffff"
     bordercolor="#666666"
     borderopacity="1.0"
     inkscape:pageopacity="0.0"
     inkscape:pageshadow="2"
     inkscape:zoom="1"
     inkscape:cx="664.5"
     inkscape:cy="175.98321"
     inkscape:document-units="mm"
     inkscape:current-layer="layer1"
     inkscape:document-rotation="0"
     showgrid="false"
     inkscape:snap-global="false"
     fit-margin-top="0"
     fit-margin-left="0"
     fit-margin-right="0"
     fit-margin-bottom="0"
     inkscape:window-width="1440"
     inkscape:window-height="786"
     inkscape:window-x="0"
     inkscape:window-y="23"
     inkscape:window-maximized="0" />
  <metadata
     id="metadata5">
    <rdf:RDF>
      <cc:Work
         rdf:about="">
        <dc:format>image/svg+xml</dc:format>
        <dc:type
           rdf:resource="http://purl.org/dc/dcmitype/StillImage" />
        <dc:title></dc:title>
      </cc:Work>
    </rdf:RDF>
  </metadata>
  <g
     inkscape:label="Layer 1"
     inkscape:groupmode="layer"
     id="layer1"
     transform="translate(72.43486,-105.62877)">
    <path
       style="fill:#ff8600;fill-opacity:1;stroke-width:0.0832223"
       d="m 3.3806216,196.86624 c -1.948011,-0.14705 -4.5993508,-0.80393 -6.8269727,-1.69142 -3.3980807,-1.35378 -6.268677,-3.67821 -8.1755169,-6.62002 -1.596495,-2.46302 -2.657935,-5.50123 -3.065663,-8.77499 -0.176388,-1.41628 -0.137262,-4.31418 0.07607,-5.63423 0.313417,-1.93935 0.886282,-3.85837 1.536819,-5.14813 2.084536,-4.13283 5.3548801,-7.46083 9.2696146,-9.43304 3.22136151,-1.6229 6.6827011,-2.41939 10.5145395,-2.4195 4.5853389,-1.7e-4 8.4081369,1.18311 11.6913879,3.61877 0.868316,0.64415 2.491125,2.22455 3.202751,3.11904 1.705565,2.14386 3.03326,4.77099 3.940557,7.79721 0.497819,1.66044 0.849442,3.18051 0.755991,3.26812 -0.09599,0.09 -3.630105,1.25064 -9.645626,3.16778 -13.8728954,4.42129 -16.99868278,5.43864 -17.13793942,5.5779 -0.19262459,0.19262 1.41718942,1.57165 2.42046962,2.07346 1.2868542,0.64365 2.6324416,0.92006 4.4788832,0.92006 2.0922568,0 3.6189616,-0.38234 6.1492526,-1.54 1.35981,-0.62214 1.407804,-0.63725 1.547676,-0.48727 0.207107,0.22206 3.865041,6.31997 4.270525,7.11911 0.251331,0.49534 0.341478,0.77446 0.345814,1.07077 0.01071,0.73071 -0.371496,0.97984 -3.034783,1.97812 -3.176694,1.19074 -5.523887,1.74126 -8.5688476,2.00978 -0.8902684,0.0785 -2.881585,0.0937 -3.7450018,0.0285 z m -3.78661296,-20.76365 c 5.54986886,-1.76273 13.05673236,-4.49106 13.35897036,-4.85523 0.254877,-0.30711 -0.451688,-1.42537 -1.657038,-2.62257 -1.233374,-1.22504 -1.9894457,-1.69085 -3.301602,-2.03411 -1.6733899,-0.43775 -4.2204805,-0.32402 -5.6374045,0.25173 -1.225442,0.49794 -2.99294054,2.04787 -3.8734079,3.39661 -0.9241408,1.41564 -1.5995935,3.74938 -1.6251977,5.61518 -0.00912,0.66447 0.011351,0.79255 0.1419331,0.88809 0.177201,0.12964 0.1517807,0.13591 2.59374664,-0.6397 z M 50.567645,196.87123 c -3.707685,-0.34843 -7.35654,-1.55333 -10.104739,-3.33672 -4.300028,-2.79041 -7.072428,-7.37917 -7.965511,-13.18417 -0.221737,-1.44129 -0.265853,-4.42919 -0.0846,-5.73032 0.430492,-3.09039 1.494963,-6.03886 2.859484,-7.92049 1.774973,-2.44762 5.05849,-5.49296 7.372294,-6.83753 1.763821,-1.02496 4.891572,-2.03525 7.699283,-2.48692 1.038281,-0.16702 1.472243,-0.18959 3.594294,-0.18694 2.093332,0.003 2.551761,0.027 3.456229,0.1839 4.507102,0.78182 7.611234,2.42923 10.421675,5.53094 2.799014,3.0891 4.734531,7.08678 5.511744,11.38416 0.08623,0.47684 0.08987,0.64673 0.0154,0.71978 -0.05362,0.0526 -2.494288,0.85189 -5.423711,1.77623 -9.357337,2.95258 -18.276741,5.80229 -19.349177,6.18196 -1.434144,0.50773 -1.8725,0.72695 -1.8725,0.9364 0,0.21799 1.233728,1.35961 1.837655,1.70044 0.593849,0.33515 1.582996,0.66231 2.40668,0.79601 1.031615,0.16746 3.197474,0.23174 4.397364,0.13052 1.321603,-0.11148 1.950114,-0.3128 4.040574,-1.2942 0.841769,-0.39518 1.588863,-0.70727 1.660218,-0.69353 0.07135,0.0137 0.535111,0.69894 1.030591,1.52266 1.928169,3.20555 4.059316,6.84265 4.059316,6.9278 0,0.37544 -2.893688,1.78992 -5.284614,2.58321 -1.624906,0.53913 -3.280039,0.90879 -5.118169,1.1431 -0.996894,0.12708 -4.372914,0.22765 -5.15978,0.15371 z m -4.702058,-20.5605 c 7.808895,-2.49957 14.008629,-4.69953 14.198134,-5.03817 0.08765,-0.15662 -0.56597,-1.47733 -1.062973,-2.14786 -1.409194,-1.90121 -4.030354,-2.96396 -6.893491,-2.79495 -2.259951,0.1334 -3.630954,0.73833 -5.190898,2.29036 -1.107213,1.1016 -1.836124,2.22669 -2.24958,3.47228 -0.426581,1.28512 -0.861459,4.25735 -0.674126,4.60739 0.06967,0.13016 0.140662,0.16091 0.275974,0.11953 0.100199,-0.0307 0.818832,-0.25951 1.59696,-0.50858 z m 49.098039,20.44637 c -7.247311,-1.09776 -12.41538,-5.65149 -14.602686,-12.86682 -0.662091,-2.18407 -0.91517,-4.18507 -0.91517,-7.23586 0,-2.81804 0.221363,-4.71319 0.753037,-6.44693 1.097302,-3.57818 3.307069,-6.98112 5.946355,-9.15709 1.664162,-1.37203 4.216173,-2.6415 6.424667,-3.1959 3.216491,-0.80742 8.853771,-0.88391 11.801011,-0.16012 2.163,0.53119 3.8559,1.35884 5.95996,2.91379 0.39432,0.29142 0.75936,0.52985 0.8112,0.52985 0.0698,0 0.0997,-4.18484 0.11527,-16.12431 l 0.021,-16.12432 h 5.90878 5.90878 v 33.49696 33.49696 h -5.90878 -5.90878 l -0.0519,-1.66444 c -0.0523,-1.67699 -0.0913,-1.95573 -0.27348,-1.95573 -0.0547,0 -0.65931,0.35633 -1.34347,0.79183 -1.9142,1.21851 -3.16617,1.82788 -5.15535,2.50927 -3.42485,1.17318 -6.810719,1.59875 -9.490434,1.19286 z m 8.325324,-10.15784 c 2.72325,-0.23526 4.18952,-1.39402 5.84738,-2.77459 3.00038,-2.71716 3.18383,-7.71874 1.90354,-11.32691 -0.96611,-2.72274 -3.14729,-4.88522 -6.50256,-5.73035 -1.28408,-0.32343 -2.2182,-0.41688 -3.60093,-0.36022 -2.607981,0.10687 -4.633661,0.89243 -6.235248,2.41804 -1.689121,1.609 -2.578193,3.23646 -2.990576,5.47426 -0.194232,1.054 -0.430038,2.97076 0.0035,4.35681 0.827148,2.64444 2.38786,5.35594 4.731099,6.83462 1.954403,1.2333 4.050015,1.33504 6.843845,1.10835 z m 71.19664,10.26551 c -0.58348,-0.0463 -3.66685,-0.67634 -4.61978,-0.94392 -6.03077,-1.69341 -10.82789,-6.60408 -12.55655,-12.85377 -0.70176,-2.53708 -0.72961,-7.60307 -0.0593,-10.77728 0.5446,-2.57871 1.78451,-5.05799 3.57935,-7.15711 2.25508,-2.63738 3.7019,-3.83393 6.04141,-4.99634 2.25834,-1.12209 4.6603,-1.81517 7.36517,-2.12519 1.60397,-0.18384 4.69945,-0.12531 6.28328,0.11882 2.8496,0.43922 4.73352,1.02727 7.24034,2.26 2.22303,1.09318 3.29027,1.85665 3.28544,2.35031 -0.003,0.30023 -0.26824,0.79721 -0.87732,1.6434 -0.84936,1.18002 -4.23932,5.60445 -4.38971,5.72926 -0.11125,0.0923 -0.2953,0.0103 -1.2426,-0.55368 -1.85265,-1.10304 -2.75994,-1.48942 -4.34904,-1.85213 -1.25543,-0.28655 -3.05692,-0.26711 -4.36104,0.0471 -3.44718,0.83048 -5.83768,3.18427 -6.79389,6.68954 -1.33211,4.88332 0.8233,9.83613 5.17638,11.89448 1.20693,0.57071 2.03955,0.71219 4.18927,0.71189 2.67893,-4.1e-4 3.90154,-0.24726 5.54461,-1.11966 0.50918,-0.27035 1.01849,-0.49154 1.1318,-0.49154 0.15594,0 0.37009,0.18778 0.88095,0.77245 2.05588,2.35294 4.75954,5.95539 4.75954,6.34176 0,0.82013 -4.63877,3.02985 -7.57655,3.60916 -2.62541,0.51771 -6.75575,0.85307 -8.6518,0.70248 z m 35.59358,-0.27358 c -1.7228,-0.13462 -3.18534,-0.46465 -5.04693,-1.1389 -3.16604,-1.14671 -4.47892,-1.88373 -6.29535,-3.53405 -0.81963,-0.74468 -1.28195,-1.25694 -1.28195,-1.42041 0,-0.0673 0.22993,-0.45596 0.51094,-0.86375 0.89917,-1.30481 4.08046,-5.52672 4.16449,-5.52672 0.0446,0 0.51822,0.36233 1.05252,0.80518 1.1487,0.95209 2.02466,1.53233 3.38489,2.24217 2.17984,1.13757 2.911,1.31891 5.0144,1.24363 2.02787,-0.0726 2.70621,-0.16809 3.32425,-0.46814 1.24971,-0.60672 1.84064,-1.95445 1.41022,-3.21626 -0.37018,-1.08521 -2.17537,-2.06939 -6.32599,-3.44891 -2.21083,-0.7348 -3.01718,-1.0512 -4.25293,-1.66878 -1.56058,-0.77993 -2.53603,-1.46835 -3.6256,-2.55878 -1.05241,-1.05324 -1.56409,-1.78914 -2.08644,-3.00073 -0.84395,-1.95756 -1.11067,-4.5505 -0.70337,-6.83772 0.829,-4.65522 4.46212,-8.21497 9.74212,-9.54539 1.46026,-0.36795 2.26303,-0.44684 4.53562,-0.44573 4.04716,0.002 6.72957,0.38002 9.05727,1.27648 1.11173,0.42816 3.93201,1.80323 4.40393,2.14721 0.45435,0.33117 0.45911,0.54343 0.0307,1.37121 -0.29834,0.57654 -3.5558,5.60366 -3.80257,5.86836 -0.0925,0.0992 -0.25814,0.019 -1.09179,-0.52882 -2.35154,-1.54524 -4.64321,-2.32378 -6.84992,-2.3271 -1.99591,-0.003 -3.38729,0.66047 -3.99862,1.90673 -0.29291,0.59714 -0.29311,1.65003 -8.3e-4,2.24483 0.26928,0.54723 0.79416,1.06018 1.39149,1.3599 0.67394,0.33816 2.53599,1.04065 4.89615,1.84715 4.15053,1.4183 6.29272,2.52283 7.89139,4.06887 1.40419,1.35796 2.41846,3.40802 2.7257,5.50925 0.24482,1.67437 -0.048,4.04392 -0.719,5.81717 -1.50042,3.96547 -4.68814,6.86864 -8.77296,7.98986 -2.49924,0.686 -6.1163,1.03269 -8.6823,0.83219 z m -271.157081,-0.76975 c -0.02183,-0.0575 -0.03011,-14.14833 -0.0184,-31.31292 l 0.02129,-31.20835 h 19.515621 19.51562 v 5.90878 5.90878 l -13.398784,0.0416 -13.398784,0.0416 v 7.1155 7.1155 l 11.526283,0.0416 11.526283,0.0416 v 5.9504 5.95039 l -11.526283,0.0416 -11.526283,0.0416 -0.04161,12.19206 -0.04161,12.19206 -6.056823,0.0214 c -4.801438,0.0169 -6.065049,0 -6.096517,-0.0832 z m 196.570951,1e-5 c -0.0219,-0.0575 -0.0301,-8.39976 -0.0184,-18.53831 l 0.0213,-18.43373 h 5.90878 5.90879 v 18.51695 18.51695 l -5.89038,0.0214 c -4.66824,0.0169 -5.89862,0 -5.93011,-0.0832 z m 4.74604,-44.4113 c -1.45506,-0.39371 -2.54832,-1.00645 -3.49641,-1.95964 -1.10042,-1.10633 -1.69561,-2.3242 -1.88247,-3.85193 -0.20608,-1.68474 0.3223,-3.15748 1.59282,-4.43961 0.96127,-0.97005 2.00777,-1.47103 3.48291,-1.66734 1.23122,-0.16384 2.42662,0.017 3.98674,0.60295 l 0.86226,0.32389 8.62947,-5.17285 c 4.74621,-2.84507 8.65521,-5.19569 8.68666,-5.2236 0.0315,-0.0279 0.0999,-0.46269 0.15195,-0.96618 0.33985,-3.28363 1.29987,-4.77992 3.61908,-5.64077 0.55984,-0.20779 0.82625,-0.25381 1.67421,-0.28918 1.53301,-0.0639 2.68013,0.25858 3.72012,1.04595 1.01128,0.76564 2.17827,2.84978 2.24763,4.01405 0.0149,0.24951 0.0832,0.47072 0.1778,0.57521 0.20076,0.22183 1.69104,0.97798 3.66491,1.85953 2.27599,1.01648 13.42102,5.71715 13.55504,5.71715 0.0621,0 0.37064,-0.20707 0.6857,-0.46016 0.74021,-0.59463 1.69225,-1.07177 2.49474,-1.2503 1.0843,-0.24124 2.08744,-0.11721 4.00142,0.49473 0.18399,0.0588 2.4654,-1.96653 15.63123,-13.87678 l 3.57856,-3.23728 0.003,-1.84125 c 0.003,-1.64385 0.0219,-1.90104 0.18023,-2.39897 0.78693,-2.4754 3.18238,-4.13175 5.68224,-3.92903 2.24544,0.18209 4.14478,1.68963 4.91888,3.9042 0.24778,0.70885 0.31097,2.14291 0.12652,2.87117 -0.46068,1.81886 -1.67351,3.17245 -3.54562,3.95711 -0.73196,0.30679 -1.68765,0.35542 -3.22986,0.16435 l -1.16725,-0.14462 -0.41681,0.22686 c -1.16693,0.63512 -3.1092,2.30169 -13.5229,11.60336 l -5.6311,5.02978 c 0,0 0.43476,1.43468 0.40724,2.19868 -0.0275,0.76401 -0.20911,2.22843 -0.80128,3.12673 -0.74262,1.12652 -1.86916,1.99602 -3.2076,2.46903 -1.09347,0.38643 -3.01338,0.29896 -4.12177,-0.1878 -1.08566,-0.47678 -2.05734,-1.41339 -2.61767,-2.52319 -0.25313,-0.50136 -0.67524,-1.80489 -0.81359,-2.51253 -0.0558,-0.28525 -0.14349,-0.57131 -0.19491,-0.6357 -0.0766,-0.096 -4.52881,-1.97094 -16.04824,-6.75854 l -1.05797,-0.43971 -0.72812,0.54285 c -1.33484,0.99517 -2.24315,1.31345 -3.73051,1.3072 -1.05776,-0.004 -1.70222,-0.15032 -2.5498,-0.57716 -1.21545,-0.61209 -1.0784,-0.67623 -10.5577,4.94173 -2.35727,1.39705 -4.89324,2.91065 -5.63549,3.36355 -1.59979,0.97616 -1.56742,0.9191 -1.28256,2.2605 0.22217,1.04621 0.22634,1.91205 0.0132,2.74533 -0.51473,2.01259 -2.12475,3.68766 -4.33018,4.50512 -0.84363,0.3127 -2.31501,0.37382 -3.2046,0.13311 z"
       id="path28"
       sodipodi:nodetypes="ssssssscssssssssssssssssssssssssssssssssccsssssssssscssssscssssssccsssssssssscccccccssssssccassssaacccsssssssscsssscsssssssscccsssssssssssssssssssssssscsssscsccssccccccccccccccccccssssccccccsssssssscsscsssscsssssscccssssscssccasssssscscsssscsss" />
    <path
       style="fill:#000000;stroke-width:0.0832223"
       id="path24"
       d="" />
  </g>
</svg>
